<svg xmlns="http://www.w3.org/2000/svg" xmlns:xlink="http://www.w3.org/1999/xlink" width="500" zoomAndPan="magnify" viewBox="0 0 375 103.5" height="138" preserveAspectRatio="xMidYMid meet" version="1.0"><defs><g/><clipPath id="d016d1d15e"><path d="M 16 8.847656 L 114.203125 8.847656 L 114.203125 97.667969 L 16 97.667969 Z M 16 8.847656 " clip-rule="nonzero"/></clipPath></defs><g fill="#8d0ff0" fill-opacity="1"><g transform="translate(124.47649, 61.473834)"><g><path d="M 20.90625 0.59375 C 17.289062 0.59375 14.113281 -0.171875 11.375 -1.703125 C 8.632812 -3.234375 6.519531 -5.40625 5.03125 -8.21875 C 3.550781 -11.039062 2.8125 -14.328125 2.8125 -18.078125 C 2.8125 -21.835938 3.585938 -25.160156 5.140625 -28.046875 C 6.703125 -30.941406 8.890625 -33.175781 11.703125 -34.75 C 14.523438 -36.332031 17.765625 -37.125 21.421875 -37.125 C 23.347656 -37.125 25.285156 -36.851562 27.234375 -36.3125 C 29.179688 -35.769531 30.898438 -35.03125 32.390625 -34.09375 C 33.960938 -33.050781 34.75 -31.738281 34.75 -30.15625 C 34.75 -29.070312 34.488281 -28.195312 33.96875 -27.53125 C 33.457031 -26.863281 32.78125 -26.53125 31.9375 -26.53125 C 31.394531 -26.53125 30.828125 -26.648438 30.234375 -26.890625 C 29.640625 -27.140625 29.046875 -27.441406 28.453125 -27.796875 C 27.367188 -28.429688 26.332031 -28.929688 25.34375 -29.296875 C 24.351562 -29.671875 23.21875 -29.859375 21.9375 -29.859375 C 18.875 -29.859375 16.515625 -28.859375 14.859375 -26.859375 C 13.203125 -24.859375 12.375 -21.984375 12.375 -18.234375 C 12.375 -14.523438 13.203125 -11.671875 14.859375 -9.671875 C 16.515625 -7.671875 18.875 -6.671875 21.9375 -6.671875 C 23.175781 -6.671875 24.273438 -6.851562 25.234375 -7.21875 C 26.191406 -7.59375 27.265625 -8.101562 28.453125 -8.75 C 29.191406 -9.1875 29.832031 -9.515625 30.375 -9.734375 C 30.925781 -9.960938 31.472656 -10.078125 32.015625 -10.078125 C 32.804688 -10.078125 33.472656 -9.726562 34.015625 -9.03125 C 34.554688 -8.34375 34.828125 -7.484375 34.828125 -6.453125 C 34.828125 -5.609375 34.640625 -4.875 34.265625 -4.25 C 33.898438 -3.632812 33.296875 -3.082031 32.453125 -2.59375 C 30.921875 -1.601562 29.140625 -0.820312 27.109375 -0.25 C 25.085938 0.3125 23.019531 0.59375 20.90625 0.59375 Z M 20.90625 0.59375 "/></g></g></g><g fill="#8d0ff0" fill-opacity="1"><g transform="translate(159.159739, 61.473834)"><g><path d="M 25.046875 -36.984375 C 26.328125 -37.078125 27.335938 -36.800781 28.078125 -36.15625 C 28.828125 -35.519531 29.203125 -34.5625 29.203125 -33.28125 C 29.203125 -31.945312 28.878906 -30.957031 28.234375 -30.3125 C 27.585938 -29.664062 26.425781 -29.242188 24.75 -29.046875 L 22.53125 -28.828125 C 19.613281 -28.535156 17.472656 -27.546875 16.109375 -25.859375 C 14.753906 -24.179688 14.078125 -22.082031 14.078125 -19.5625 L 14.078125 -4 C 14.078125 -2.570312 13.628906 -1.472656 12.734375 -0.703125 C 11.847656 0.0546875 10.738281 0.4375 9.40625 0.4375 C 8.070312 0.4375 6.972656 0.0546875 6.109375 -0.703125 C 5.242188 -1.472656 4.8125 -2.570312 4.8125 -4 L 4.8125 -32.6875 C 4.8125 -34.0625 5.242188 -35.117188 6.109375 -35.859375 C 6.972656 -36.609375 8.050781 -36.984375 9.34375 -36.984375 C 10.625 -36.984375 11.660156 -36.625 12.453125 -35.90625 C 13.242188 -35.1875 13.640625 -34.160156 13.640625 -32.828125 L 13.640625 -29.859375 C 14.578125 -32.035156 15.972656 -33.71875 17.828125 -34.90625 C 19.679688 -36.09375 21.742188 -36.757812 24.015625 -36.90625 Z M 25.046875 -36.984375 "/></g></g></g><g fill="#8d0ff0" fill-opacity="1"><g transform="translate(186.06149, 61.473834)"><g><path d="M 33.421875 -36.984375 C 34.859375 -36.984375 35.992188 -36.585938 36.828125 -35.796875 C 37.671875 -35.003906 38.09375 -33.941406 38.09375 -32.609375 L 38.09375 -3.859375 C 38.09375 -2.566406 37.660156 -1.523438 36.796875 -0.734375 C 35.929688 0.046875 34.804688 0.4375 33.421875 0.4375 C 32.085938 0.4375 31.023438 0.0664062 30.234375 -0.671875 C 29.441406 -1.410156 29.046875 -2.421875 29.046875 -3.703125 L 29.046875 -5.5625 C 27.910156 -3.582031 26.378906 -2.0625 24.453125 -1 C 22.523438 0.0625 20.351562 0.59375 17.9375 0.59375 C 9.039062 0.59375 4.59375 -4.394531 4.59375 -14.375 L 4.59375 -32.609375 C 4.59375 -33.941406 5.007812 -35.003906 5.84375 -35.796875 C 6.6875 -36.585938 7.800781 -36.984375 9.1875 -36.984375 C 10.625 -36.984375 11.757812 -36.585938 12.59375 -35.796875 C 13.4375 -35.003906 13.859375 -33.941406 13.859375 -32.609375 L 13.859375 -14.296875 C 13.859375 -11.734375 14.375 -9.832031 15.40625 -8.59375 C 16.445312 -7.363281 18.082031 -6.75 20.3125 -6.75 C 22.875 -6.75 24.929688 -7.597656 26.484375 -9.296875 C 28.046875 -11.003906 28.828125 -13.265625 28.828125 -16.078125 L 28.828125 -32.609375 C 28.828125 -33.941406 29.242188 -35.003906 30.078125 -35.796875 C 30.921875 -36.585938 32.035156 -36.984375 33.421875 -36.984375 Z M 33.421875 -36.984375 "/></g></g></g><g fill="#8d0ff0" fill-opacity="1"><g transform="translate(227.488678, 61.473834)"><g><path d="M 17.9375 0.59375 C 12.550781 0.59375 8.203125 -0.46875 4.890625 -2.59375 C 3.304688 -3.53125 2.515625 -4.863281 2.515625 -6.59375 C 2.515625 -7.582031 2.785156 -8.382812 3.328125 -9 C 3.878906 -9.625 4.546875 -9.9375 5.328125 -9.9375 C 6.171875 -9.9375 7.332031 -9.539062 8.8125 -8.75 C 10.394531 -8.007812 11.84375 -7.441406 13.15625 -7.046875 C 14.46875 -6.648438 16.132812 -6.453125 18.15625 -6.453125 C 20.226562 -6.453125 21.84375 -6.796875 23 -7.484375 C 24.164062 -8.171875 24.75 -9.132812 24.75 -10.375 C 24.75 -11.21875 24.515625 -11.882812 24.046875 -12.375 C 23.578125 -12.875 22.738281 -13.332031 21.53125 -13.75 C 20.320312 -14.164062 18.476562 -14.644531 16 -15.1875 C 11.601562 -16.082031 8.453125 -17.34375 6.546875 -18.96875 C 4.648438 -20.601562 3.703125 -22.851562 3.703125 -25.71875 C 3.703125 -27.894531 4.34375 -29.859375 5.625 -31.609375 C 6.914062 -33.359375 8.679688 -34.710938 10.921875 -35.671875 C 13.171875 -36.640625 15.726562 -37.125 18.59375 -37.125 C 20.675781 -37.125 22.679688 -36.863281 24.609375 -36.34375 C 26.535156 -35.832031 28.265625 -35.082031 29.796875 -34.09375 C 31.367188 -33.101562 32.15625 -31.789062 32.15625 -30.15625 C 32.15625 -29.175781 31.882812 -28.347656 31.34375 -27.671875 C 30.800781 -27.003906 30.132812 -26.671875 29.34375 -26.671875 C 28.800781 -26.671875 28.269531 -26.78125 27.75 -27 C 27.226562 -27.226562 26.578125 -27.566406 25.796875 -28.015625 C 24.359375 -28.753906 23.117188 -29.304688 22.078125 -29.671875 C 21.046875 -30.046875 19.765625 -30.234375 18.234375 -30.234375 C 16.398438 -30.234375 14.953125 -29.863281 13.890625 -29.125 C 12.828125 -28.382812 12.296875 -27.375 12.296875 -26.09375 C 12.296875 -24.851562 12.835938 -23.910156 13.921875 -23.265625 C 15.015625 -22.628906 17.117188 -21.988281 20.234375 -21.34375 C 23.546875 -20.65625 26.140625 -19.863281 28.015625 -18.96875 C 29.890625 -18.082031 31.234375 -16.972656 32.046875 -15.640625 C 32.867188 -14.304688 33.28125 -12.601562 33.28125 -10.53125 C 33.28125 -7.164062 31.882812 -4.46875 29.09375 -2.4375 C 26.300781 -0.414062 22.582031 0.59375 17.9375 0.59375 Z M 17.9375 0.59375 "/></g></g></g><g fill="#8d0ff0" fill-opacity="1"><g transform="translate(261.949578, 61.473834)"><g><path d="M 26.015625 -37.125 C 34.515625 -37.125 38.765625 -32.160156 38.765625 -22.234375 L 38.765625 -4 C 38.765625 -2.613281 38.351562 -1.523438 37.53125 -0.734375 C 36.71875 0.046875 35.597656 0.4375 34.171875 0.4375 C 32.734375 0.4375 31.59375 0.046875 30.75 -0.734375 C 29.914062 -1.523438 29.5 -2.613281 29.5 -4 L 29.5 -22.234375 C 29.5 -24.847656 28.96875 -26.757812 27.90625 -27.96875 C 26.84375 -29.1875 25.175781 -29.796875 22.90625 -29.796875 C 20.226562 -29.796875 18.085938 -28.953125 16.484375 -27.265625 C 14.878906 -25.585938 14.078125 -23.34375 14.078125 -20.53125 L 14.078125 -4 C 14.078125 -2.613281 13.65625 -1.523438 12.8125 -0.734375 C 11.976562 0.046875 10.84375 0.4375 9.40625 0.4375 C 7.976562 0.4375 6.851562 0.046875 6.03125 -0.734375 C 5.21875 -1.523438 4.8125 -2.613281 4.8125 -4 L 4.8125 -48.3125 C 4.8125 -49.601562 5.242188 -50.644531 6.109375 -51.4375 C 6.972656 -52.226562 8.097656 -52.625 9.484375 -52.625 C 10.867188 -52.625 11.976562 -52.25 12.8125 -51.5 C 13.65625 -50.757812 14.078125 -49.75 14.078125 -48.46875 L 14.078125 -31.203125 C 15.316406 -33.128906 16.957031 -34.597656 19 -35.609375 C 21.050781 -36.617188 23.390625 -37.125 26.015625 -37.125 Z M 26.015625 -37.125 "/></g></g></g><g fill="#8d0ff0" fill-opacity="1"><g transform="translate(303.821427, 61.473834)"><g><path d="M 9.40625 0.4375 C 8.070312 0.4375 6.972656 0.0546875 6.109375 -0.703125 C 5.242188 -1.472656 4.8125 -2.570312 4.8125 -4 L 4.8125 -48.25 C 4.8125 -49.675781 5.242188 -50.757812 6.109375 -51.5 C 6.972656 -52.25 8.070312 -52.625 9.40625 -52.625 C 10.738281 -52.625 11.847656 -52.25 12.734375 -51.5 C 13.628906 -50.757812 14.078125 -49.675781 14.078125 -48.25 L 14.078125 -4 C 14.078125 -2.570312 13.628906 -1.472656 12.734375 -0.703125 C 11.847656 0.0546875 10.738281 0.4375 9.40625 0.4375 Z M 9.40625 0.4375 "/></g></g></g><g fill="#8d0ff0" fill-opacity="1"><g transform="translate(321.163033, 61.473834)"><g><path d="M 30.09375 -34.3125 C 30.488281 -35.195312 31.019531 -35.847656 31.6875 -36.265625 C 32.351562 -36.691406 33.082031 -36.90625 33.875 -36.90625 C 35.007812 -36.90625 36.03125 -36.519531 36.9375 -35.75 C 37.851562 -34.988281 38.3125 -34.039062 38.3125 -32.90625 C 38.3125 -32.363281 38.164062 -31.796875 37.875 -31.203125 L 17.640625 11.1875 C 16.796875 12.863281 15.484375 13.703125 13.703125 13.703125 C 12.566406 13.703125 11.566406 13.34375 10.703125 12.625 C 9.835938 11.914062 9.40625 11.019531 9.40625 9.9375 C 9.40625 9.382812 9.554688 8.765625 9.859375 8.078125 L 14.890625 -2.515625 L 1.109375 -31.203125 C 0.859375 -31.691406 0.734375 -32.257812 0.734375 -32.90625 C 0.734375 -34.039062 1.210938 -35.003906 2.171875 -35.796875 C 3.140625 -36.585938 4.242188 -36.984375 5.484375 -36.984375 C 6.328125 -36.984375 7.09375 -36.769531 7.78125 -36.34375 C 8.46875 -35.925781 9.007812 -35.273438 9.40625 -34.390625 L 19.78125 -11.484375 Z M 30.09375 -34.3125 "/></g></g></g><g fill="#000000" fill-opacity="1"><g transform="translate(140.820431, 78.375375)"><g><path d="M 5.6875 0.125 C 4.695312 0.125 3.832031 -0.0859375 3.09375 -0.515625 C 2.351562 -0.941406 1.78125 -1.550781 1.375 -2.34375 C 0.976562 -3.132812 0.78125 -4.066406 0.78125 -5.140625 C 0.78125 -6.203125 0.976562 -7.128906 1.375 -7.921875 C 1.78125 -8.710938 2.351562 -9.320312 3.09375 -9.75 C 3.832031 -10.175781 4.695312 -10.390625 5.6875 -10.390625 C 6.320312 -10.390625 6.921875 -10.289062 7.484375 -10.09375 C 8.046875 -9.90625 8.546875 -9.632812 8.984375 -9.28125 C 9.109375 -9.1875 9.195312 -9.082031 9.25 -8.96875 C 9.300781 -8.863281 9.328125 -8.734375 9.328125 -8.578125 C 9.328125 -8.367188 9.265625 -8.191406 9.140625 -8.046875 C 9.023438 -7.898438 8.890625 -7.828125 8.734375 -7.828125 C 8.535156 -7.828125 8.332031 -7.894531 8.125 -8.03125 C 7.707031 -8.34375 7.320312 -8.554688 6.96875 -8.671875 C 6.613281 -8.796875 6.21875 -8.859375 5.78125 -8.859375 C 4.769531 -8.859375 4.003906 -8.539062 3.484375 -7.90625 C 2.960938 -7.28125 2.703125 -6.359375 2.703125 -5.140625 C 2.703125 -3.898438 2.960938 -2.960938 3.484375 -2.328125 C 4.003906 -1.703125 4.769531 -1.390625 5.78125 -1.390625 C 6.195312 -1.390625 6.582031 -1.453125 6.9375 -1.578125 C 7.289062 -1.710938 7.6875 -1.925781 8.125 -2.21875 C 8.226562 -2.28125 8.328125 -2.328125 8.421875 -2.359375 C 8.515625 -2.398438 8.617188 -2.421875 8.734375 -2.421875 C 8.890625 -2.421875 9.023438 -2.347656 9.140625 -2.203125 C 9.265625 -2.066406 9.328125 -1.890625 9.328125 -1.671875 C 9.328125 -1.523438 9.300781 -1.394531 9.25 -1.28125 C 9.195312 -1.175781 9.109375 -1.070312 8.984375 -0.96875 C 8.546875 -0.613281 8.046875 -0.34375 7.484375 -0.15625 C 6.921875 0.03125 6.320312 0.125 5.6875 0.125 Z M 5.6875 0.125 "/></g></g></g><g fill="#000000" fill-opacity="1"><g transform="translate(152.423403, 78.375375)"><g><path d="M 5.671875 0.125 C 4.671875 0.125 3.804688 -0.0859375 3.078125 -0.515625 C 2.347656 -0.941406 1.78125 -1.550781 1.375 -2.34375 C 0.976562 -3.132812 0.78125 -4.066406 0.78125 -5.140625 C 0.78125 -6.203125 0.976562 -7.128906 1.375 -7.921875 C 1.769531 -8.710938 2.332031 -9.320312 3.0625 -9.75 C 3.800781 -10.175781 4.671875 -10.390625 5.671875 -10.390625 C 6.671875 -10.390625 7.535156 -10.175781 8.265625 -9.75 C 9.003906 -9.320312 9.566406 -8.710938 9.953125 -7.921875 C 10.347656 -7.128906 10.546875 -6.203125 10.546875 -5.140625 C 10.546875 -4.066406 10.347656 -3.132812 9.953125 -2.34375 C 9.554688 -1.550781 8.988281 -0.941406 8.25 -0.515625 C 7.519531 -0.0859375 6.660156 0.125 5.671875 0.125 Z M 5.671875 -1.375 C 6.609375 -1.375 7.34375 -1.695312 7.875 -2.34375 C 8.40625 -2.988281 8.671875 -3.921875 8.671875 -5.140625 C 8.671875 -6.347656 8.40625 -7.273438 7.875 -7.921875 C 7.34375 -8.566406 6.609375 -8.890625 5.671875 -8.890625 C 4.722656 -8.890625 3.984375 -8.566406 3.453125 -7.921875 C 2.921875 -7.273438 2.65625 -6.347656 2.65625 -5.140625 C 2.65625 -3.921875 2.921875 -2.988281 3.453125 -2.34375 C 3.984375 -1.695312 4.722656 -1.375 5.671875 -1.375 Z M 5.671875 -1.375 "/></g></g></g><g fill="#000000" fill-opacity="1"><g transform="translate(165.494918, 78.375375)"><g><path d="M 8.875 -10.328125 C 9.144531 -10.328125 9.359375 -10.238281 9.515625 -10.0625 C 9.679688 -9.894531 9.765625 -9.671875 9.765625 -9.390625 L 9.765625 -0.859375 C 9.765625 -0.578125 9.679688 -0.347656 9.515625 -0.171875 C 9.347656 0.00390625 9.132812 0.09375 8.875 0.09375 C 8.5625 0.09375 8.320312 -0.0195312 8.15625 -0.25 L 2.84375 -7.15625 L 2.84375 -0.859375 C 2.84375 -0.578125 2.765625 -0.347656 2.609375 -0.171875 C 2.460938 0.00390625 2.253906 0.09375 1.984375 0.09375 C 1.710938 0.09375 1.5 0.00390625 1.34375 -0.171875 C 1.1875 -0.347656 1.109375 -0.578125 1.109375 -0.859375 L 1.109375 -9.390625 C 1.109375 -9.671875 1.1875 -9.894531 1.34375 -10.0625 C 1.507812 -10.238281 1.726562 -10.328125 2 -10.328125 C 2.300781 -10.328125 2.535156 -10.21875 2.703125 -10 L 8 -3.109375 L 8 -9.390625 C 8 -9.671875 8.078125 -9.894531 8.234375 -10.0625 C 8.398438 -10.238281 8.613281 -10.328125 8.875 -10.328125 Z M 8.875 -10.328125 "/></g></g></g><g fill="#000000" fill-opacity="1"><g transform="translate(178.101151, 78.375375)"><g><path d="M 8.875 -10.328125 C 9.144531 -10.328125 9.359375 -10.238281 9.515625 -10.0625 C 9.679688 -9.894531 9.765625 -9.671875 9.765625 -9.390625 L 9.765625 -0.859375 C 9.765625 -0.578125 9.679688 -0.347656 9.515625 -0.171875 C 9.347656 0.00390625 9.132812 0.09375 8.875 0.09375 C 8.5625 0.09375 8.320312 -0.0195312 8.15625 -0.25 L 2.84375 -7.15625 L 2.84375 -0.859375 C 2.84375 -0.578125 2.765625 -0.347656 2.609375 -0.171875 C 2.460938 0.00390625 2.253906 0.09375 1.984375 0.09375 C 1.710938 0.09375 1.5 0.00390625 1.34375 -0.171875 C 1.1875 -0.347656 1.109375 -0.578125 1.109375 -0.859375 L 1.109375 -9.390625 C 1.109375 -9.671875 1.1875 -9.894531 1.34375 -10.0625 C 1.507812 -10.238281 1.726562 -10.328125 2 -10.328125 C 2.300781 -10.328125 2.535156 -10.21875 2.703125 -10 L 8 -3.109375 L 8 -9.390625 C 8 -9.671875 8.078125 -9.894531 8.234375 -10.0625 C 8.398438 -10.238281 8.613281 -10.328125 8.875 -10.328125 Z M 8.875 -10.328125 "/></g></g></g><g fill="#000000" fill-opacity="1"><g transform="translate(190.707384, 78.375375)"><g><path d="M 2 0 C 1.71875 0 1.5 -0.078125 1.34375 -0.234375 C 1.1875 -0.390625 1.109375 -0.609375 1.109375 -0.890625 L 1.109375 -9.375 C 1.109375 -9.65625 1.1875 -9.867188 1.34375 -10.015625 C 1.5 -10.171875 1.71875 -10.25 2 -10.25 L 7.265625 -10.25 C 7.546875 -10.25 7.757812 -10.1875 7.90625 -10.0625 C 8.0625 -9.9375 8.140625 -9.757812 8.140625 -9.53125 C 8.140625 -9.289062 8.0625 -9.101562 7.90625 -8.96875 C 7.757812 -8.832031 7.546875 -8.765625 7.265625 -8.765625 L 2.9375 -8.765625 L 2.9375 -5.953125 L 6.96875 -5.953125 C 7.25 -5.953125 7.46875 -5.890625 7.625 -5.765625 C 7.78125 -5.640625 7.859375 -5.453125 7.859375 -5.203125 C 7.859375 -4.972656 7.78125 -4.796875 7.625 -4.671875 C 7.46875 -4.546875 7.25 -4.484375 6.96875 -4.484375 L 2.9375 -4.484375 L 2.9375 -1.484375 L 7.265625 -1.484375 C 7.546875 -1.484375 7.757812 -1.414062 7.90625 -1.28125 C 8.0625 -1.15625 8.140625 -0.972656 8.140625 -0.734375 C 8.140625 -0.492188 8.0625 -0.3125 7.90625 -0.1875 C 7.757812 -0.0625 7.546875 0 7.265625 0 Z M 2 0 "/></g></g></g><g fill="#000000" fill-opacity="1"><g transform="translate(201.016291, 78.375375)"><g><path d="M 5.6875 0.125 C 4.695312 0.125 3.832031 -0.0859375 3.09375 -0.515625 C 2.351562 -0.941406 1.78125 -1.550781 1.375 -2.34375 C 0.976562 -3.132812 0.78125 -4.066406 0.78125 -5.140625 C 0.78125 -6.203125 0.976562 -7.128906 1.375 -7.921875 C 1.78125 -8.710938 2.351562 -9.320312 3.09375 -9.75 C 3.832031 -10.175781 4.695312 -10.390625 5.6875 -10.390625 C 6.320312 -10.390625 6.921875 -10.289062 7.484375 -10.09375 C 8.046875 -9.90625 8.546875 -9.632812 8.984375 -9.28125 C 9.109375 -9.1875 9.195312 -9.082031 9.25 -8.96875 C 9.300781 -8.863281 9.328125 -8.734375 9.328125 -8.578125 C 9.328125 -8.367188 9.265625 -8.191406 9.140625 -8.046875 C 9.023438 -7.898438 8.890625 -7.828125 8.734375 -7.828125 C 8.535156 -7.828125 8.332031 -7.894531 8.125 -8.03125 C 7.707031 -8.34375 7.320312 -8.554688 6.96875 -8.671875 C 6.613281 -8.796875 6.21875 -8.859375 5.78125 -8.859375 C 4.769531 -8.859375 4.003906 -8.539062 3.484375 -7.90625 C 2.960938 -7.28125 2.703125 -6.359375 2.703125 -5.140625 C 2.703125 -3.898438 2.960938 -2.960938 3.484375 -2.328125 C 4.003906 -1.703125 4.769531 -1.390625 5.78125 -1.390625 C 6.195312 -1.390625 6.582031 -1.453125 6.9375 -1.578125 C 7.289062 -1.710938 7.6875 -1.925781 8.125 -2.21875 C 8.226562 -2.28125 8.328125 -2.328125 8.421875 -2.359375 C 8.515625 -2.398438 8.617188 -2.421875 8.734375 -2.421875 C 8.890625 -2.421875 9.023438 -2.347656 9.140625 -2.203125 C 9.265625 -2.066406 9.328125 -1.890625 9.328125 -1.671875 C 9.328125 -1.523438 9.300781 -1.394531 9.25 -1.28125 C 9.195312 -1.175781 9.109375 -1.070312 8.984375 -0.96875 C 8.546875 -0.613281 8.046875 -0.34375 7.484375 -0.15625 C 6.921875 0.03125 6.320312 0.125 5.6875 0.125 Z M 5.6875 0.125 "/></g></g></g><g fill="#000000" fill-opacity="1"><g transform="translate(212.619265, 78.375375)"><g><path d="M 4.46875 0.078125 C 4.175781 0.078125 3.941406 -0.00390625 3.765625 -0.171875 C 3.597656 -0.347656 3.515625 -0.578125 3.515625 -0.859375 L 3.515625 -8.71875 L 0.875 -8.71875 C 0.289062 -8.71875 0 -8.972656 0 -9.484375 C 0 -9.992188 0.289062 -10.25 0.875 -10.25 L 8.046875 -10.25 C 8.628906 -10.25 8.921875 -9.992188 8.921875 -9.484375 C 8.921875 -8.972656 8.628906 -8.71875 8.046875 -8.71875 L 5.390625 -8.71875 L 5.390625 -0.859375 C 5.390625 -0.578125 5.304688 -0.347656 5.140625 -0.171875 C 4.972656 -0.00390625 4.75 0.078125 4.46875 0.078125 Z M 4.46875 0.078125 "/></g></g></g><g fill="#000000" fill-opacity="1"><g transform="translate(223.277124, 78.375375)"><g/></g></g><g fill="#000000" fill-opacity="1"><g transform="translate(228.96229, 78.375375)"><g><path d="M 13.96875 -9.765625 C 14.03125 -9.953125 14.132812 -10.09375 14.28125 -10.1875 C 14.4375 -10.289062 14.609375 -10.34375 14.796875 -10.34375 C 15.023438 -10.34375 15.222656 -10.269531 15.390625 -10.125 C 15.566406 -9.976562 15.65625 -9.785156 15.65625 -9.546875 C 15.65625 -9.453125 15.628906 -9.328125 15.578125 -9.171875 L 12.453125 -0.515625 C 12.367188 -0.316406 12.238281 -0.160156 12.0625 -0.046875 C 11.882812 0.0546875 11.691406 0.109375 11.484375 0.109375 C 11.265625 0.109375 11.0625 0.0546875 10.875 -0.046875 C 10.695312 -0.160156 10.570312 -0.316406 10.5 -0.515625 L 8.09375 -7.359375 L 5.625 -0.515625 C 5.550781 -0.316406 5.421875 -0.160156 5.234375 -0.046875 C 5.054688 0.0546875 4.863281 0.109375 4.65625 0.109375 C 4.4375 0.109375 4.238281 0.0546875 4.0625 -0.046875 C 3.882812 -0.160156 3.757812 -0.316406 3.6875 -0.515625 L 0.5625 -9.171875 C 0.519531 -9.304688 0.5 -9.429688 0.5 -9.546875 C 0.5 -9.785156 0.585938 -9.976562 0.765625 -10.125 C 0.941406 -10.269531 1.148438 -10.34375 1.390625 -10.34375 C 1.585938 -10.34375 1.765625 -10.289062 1.921875 -10.1875 C 2.078125 -10.09375 2.1875 -9.953125 2.25 -9.765625 L 4.734375 -2.640625 L 7.265625 -9.71875 C 7.335938 -9.914062 7.453125 -10.066406 7.609375 -10.171875 C 7.765625 -10.285156 7.929688 -10.34375 8.109375 -10.34375 C 8.296875 -10.34375 8.46875 -10.285156 8.625 -10.171875 C 8.789062 -10.066406 8.90625 -9.910156 8.96875 -9.703125 L 11.453125 -2.5625 Z M 13.96875 -9.765625 "/></g></g></g><g fill="#000000" fill-opacity="1"><g transform="translate(246.846575, 78.375375)"><g><path d="M 2.03125 0.09375 C 1.75 0.09375 1.523438 0.00390625 1.359375 -0.171875 C 1.191406 -0.347656 1.109375 -0.578125 1.109375 -0.859375 L 1.109375 -9.390625 C 1.109375 -9.671875 1.191406 -9.894531 1.359375 -10.0625 C 1.523438 -10.238281 1.75 -10.328125 2.03125 -10.328125 C 2.320312 -10.328125 2.550781 -10.238281 2.71875 -10.0625 C 2.894531 -9.894531 2.984375 -9.671875 2.984375 -9.390625 L 2.984375 -0.859375 C 2.984375 -0.578125 2.894531 -0.347656 2.71875 -0.171875 C 2.550781 0.00390625 2.320312 0.09375 2.03125 0.09375 Z M 2.03125 0.09375 "/></g></g></g><g fill="#000000" fill-opacity="1"><g transform="translate(252.677135, 78.375375)"><g><path d="M 4.46875 0.078125 C 4.175781 0.078125 3.941406 -0.00390625 3.765625 -0.171875 C 3.597656 -0.347656 3.515625 -0.578125 3.515625 -0.859375 L 3.515625 -8.71875 L 0.875 -8.71875 C 0.289062 -8.71875 0 -8.972656 0 -9.484375 C 0 -9.992188 0.289062 -10.25 0.875 -10.25 L 8.046875 -10.25 C 8.628906 -10.25 8.921875 -9.992188 8.921875 -9.484375 C 8.921875 -8.972656 8.628906 -8.71875 8.046875 -8.71875 L 5.390625 -8.71875 L 5.390625 -0.859375 C 5.390625 -0.578125 5.304688 -0.347656 5.140625 -0.171875 C 4.972656 -0.00390625 4.75 0.078125 4.46875 0.078125 Z M 4.46875 0.078125 "/></g></g></g><g fill="#000000" fill-opacity="1"><g transform="translate(263.334994, 78.375375)"><g><path d="M 9.125 -10.328125 C 9.40625 -10.328125 9.625 -10.238281 9.78125 -10.0625 C 9.945312 -9.894531 10.03125 -9.671875 10.03125 -9.390625 L 10.03125 -0.859375 C 10.03125 -0.578125 9.945312 -0.347656 9.78125 -0.171875 C 9.613281 0.00390625 9.394531 0.09375 9.125 0.09375 C 8.84375 0.09375 8.617188 0.00390625 8.453125 -0.171875 C 8.285156 -0.347656 8.203125 -0.578125 8.203125 -0.859375 L 8.203125 -4.453125 L 2.953125 -4.453125 L 2.953125 -0.859375 C 2.953125 -0.578125 2.863281 -0.347656 2.6875 -0.171875 C 2.519531 0.00390625 2.296875 0.09375 2.015625 0.09375 C 1.742188 0.09375 1.523438 0.00390625 1.359375 -0.171875 C 1.191406 -0.347656 1.109375 -0.578125 1.109375 -0.859375 L 1.109375 -9.390625 C 1.109375 -9.671875 1.1875 -9.894531 1.34375 -10.0625 C 1.507812 -10.238281 1.734375 -10.328125 2.015625 -10.328125 C 2.296875 -10.328125 2.519531 -10.238281 2.6875 -10.0625 C 2.863281 -9.894531 2.953125 -9.671875 2.953125 -9.390625 L 2.953125 -5.96875 L 8.203125 -5.96875 L 8.203125 -9.390625 C 8.203125 -9.671875 8.285156 -9.894531 8.453125 -10.0625 C 8.617188 -10.238281 8.84375 -10.328125 9.125 -10.328125 Z M 9.125 -10.328125 "/></g></g></g><g fill="#000000" fill-opacity="1"><g transform="translate(276.217485, 78.375375)"><g/></g></g><g fill="#000000" fill-opacity="1"><g transform="translate(281.902652, 78.375375)"><g><path d="M 2 0 C 1.71875 0 1.5 -0.078125 1.34375 -0.234375 C 1.1875 -0.390625 1.109375 -0.601562 1.109375 -0.875 L 1.109375 -9.390625 C 1.109375 -9.671875 1.191406 -9.894531 1.359375 -10.0625 C 1.523438 -10.238281 1.75 -10.328125 2.03125 -10.328125 C 2.320312 -10.328125 2.550781 -10.238281 2.71875 -10.0625 C 2.894531 -9.894531 2.984375 -9.671875 2.984375 -9.390625 L 2.984375 -1.546875 L 7.0625 -1.546875 C 7.644531 -1.546875 7.9375 -1.285156 7.9375 -0.765625 C 7.9375 -0.253906 7.644531 0 7.0625 0 Z M 2 0 "/></g></g></g><g fill="#000000" fill-opacity="1"><g transform="translate(291.717194, 78.375375)"><g><path d="M 5.671875 0.125 C 4.671875 0.125 3.804688 -0.0859375 3.078125 -0.515625 C 2.347656 -0.941406 1.78125 -1.550781 1.375 -2.34375 C 0.976562 -3.132812 0.78125 -4.066406 0.78125 -5.140625 C 0.78125 -6.203125 0.976562 -7.128906 1.375 -7.921875 C 1.769531 -8.710938 2.332031 -9.320312 3.0625 -9.75 C 3.800781 -10.175781 4.671875 -10.390625 5.671875 -10.390625 C 6.671875 -10.390625 7.535156 -10.175781 8.265625 -9.75 C 9.003906 -9.320312 9.566406 -8.710938 9.953125 -7.921875 C 10.347656 -7.128906 10.546875 -6.203125 10.546875 -5.140625 C 10.546875 -4.066406 10.347656 -3.132812 9.953125 -2.34375 C 9.554688 -1.550781 8.988281 -0.941406 8.25 -0.515625 C 7.519531 -0.0859375 6.660156 0.125 5.671875 0.125 Z M 5.671875 -1.375 C 6.609375 -1.375 7.34375 -1.695312 7.875 -2.34375 C 8.40625 -2.988281 8.671875 -3.921875 8.671875 -5.140625 C 8.671875 -6.347656 8.40625 -7.273438 7.875 -7.921875 C 7.34375 -8.566406 6.609375 -8.890625 5.671875 -8.890625 C 4.722656 -8.890625 3.984375 -8.566406 3.453125 -7.921875 C 2.921875 -7.273438 2.65625 -6.347656 2.65625 -5.140625 C 2.65625 -3.921875 2.921875 -2.988281 3.453125 -2.34375 C 3.984375 -1.695312 4.722656 -1.375 5.671875 -1.375 Z M 5.671875 -1.375 "/></g></g></g><g fill="#000000" fill-opacity="1"><g transform="translate(304.788702, 78.375375)"><g><path d="M 8.5625 -9.84375 C 8.71875 -10.175781 8.976562 -10.34375 9.34375 -10.34375 C 9.582031 -10.34375 9.796875 -10.265625 9.984375 -10.109375 C 10.179688 -9.953125 10.28125 -9.757812 10.28125 -9.53125 C 10.28125 -9.425781 10.253906 -9.304688 10.203125 -9.171875 L 6.171875 -0.5 C 6.078125 -0.3125 5.941406 -0.164062 5.765625 -0.0625 C 5.585938 0.0390625 5.394531 0.09375 5.1875 0.09375 C 4.988281 0.09375 4.796875 0.0390625 4.609375 -0.0625 C 4.429688 -0.164062 4.300781 -0.3125 4.21875 -0.5 L 0.203125 -9.171875 C 0.140625 -9.304688 0.109375 -9.421875 0.109375 -9.515625 C 0.109375 -9.753906 0.207031 -9.953125 0.40625 -10.109375 C 0.613281 -10.265625 0.84375 -10.34375 1.09375 -10.34375 C 1.257812 -10.34375 1.410156 -10.300781 1.546875 -10.21875 C 1.691406 -10.132812 1.800781 -10.007812 1.875 -9.84375 L 5.21875 -2.421875 Z M 8.5625 -9.84375 "/></g></g></g><g fill="#000000" fill-opacity="1"><g transform="translate(316.915105, 78.375375)"><g><path d="M 2 0 C 1.71875 0 1.5 -0.078125 1.34375 -0.234375 C 1.1875 -0.390625 1.109375 -0.609375 1.109375 -0.890625 L 1.109375 -9.375 C 1.109375 -9.65625 1.1875 -9.867188 1.34375 -10.015625 C 1.5 -10.171875 1.71875 -10.25 2 -10.25 L 7.265625 -10.25 C 7.546875 -10.25 7.757812 -10.1875 7.90625 -10.0625 C 8.0625 -9.9375 8.140625 -9.757812 8.140625 -9.53125 C 8.140625 -9.289062 8.0625 -9.101562 7.90625 -8.96875 C 7.757812 -8.832031 7.546875 -8.765625 7.265625 -8.765625 L 2.9375 -8.765625 L 2.9375 -5.953125 L 6.96875 -5.953125 C 7.25 -5.953125 7.46875 -5.890625 7.625 -5.765625 C 7.78125 -5.640625 7.859375 -5.453125 7.859375 -5.203125 C 7.859375 -4.972656 7.78125 -4.796875 7.625 -4.671875 C 7.46875 -4.546875 7.25 -4.484375 6.96875 -4.484375 L 2.9375 -4.484375 L 2.9375 -1.484375 L 7.265625 -1.484375 C 7.546875 -1.484375 7.757812 -1.414062 7.90625 -1.28125 C 8.0625 -1.15625 8.140625 -0.972656 8.140625 -0.734375 C 8.140625 -0.492188 8.0625 -0.3125 7.90625 -0.1875 C 7.757812 -0.0625 7.546875 0 7.265625 0 Z M 2 0 "/></g></g></g><g clip-path="url(#d016d1d15e)"><path fill="#8d0ff0" d="M 48.578125 80.816406 L 88.796875 40.59375 C 89.65625 39.730469 90.128906 38.589844 90.128906 37.375 C 90.128906 36.15625 89.65625 35.015625 88.796875 34.152344 C 87.9375 33.296875 86.792969 32.824219 85.578125 32.824219 C 84.355469 32.824219 83.214844 33.296875 82.355469 34.152344 L 65.523438 50.988281 L 48.6875 34.152344 C 47.828125 33.296875 46.6875 32.824219 45.472656 32.824219 C 44.253906 32.824219 43.109375 33.296875 42.25 34.152344 C 41.09375 35.3125 40.921875 36.667969 40.921875 37.375 C 40.921875 38.078125 41.09375 39.4375 42.25 40.59375 L 59.082031 57.425781 L 42.136719 74.375 L 25.304688 57.542969 C 14.183594 46.421875 14.183594 28.324219 25.304688 17.203125 C 30.6875 11.820312 37.851562 8.855469 45.472656 8.855469 C 52.339844 8.855469 58.964844 11.320312 64.125 15.792969 L 65.523438 17.007812 L 66.921875 15.792969 C 72.085938 11.320312 78.710938 8.855469 85.578125 8.855469 C 93.195312 8.855469 100.355469 11.820312 105.746094 17.203125 C 111.125 22.582031 114.085938 29.746094 114.085938 37.375 C 114.085938 45 111.125 52.164062 105.746094 57.542969 L 65.527344 97.765625 Z M 85.578125 25.796875 C 87.367188 25.796875 90.8125 26.238281 93.765625 29.1875 C 96.714844 32.140625 97.15625 35.582031 97.15625 37.375 C 97.15625 39.164062 96.714844 42.605469 93.765625 45.558594 L 68.007812 71.320312 L 58.515625 80.816406 L 65.527344 87.828125 L 100.777344 52.574219 C 104.835938 48.515625 107.074219 43.117188 107.074219 37.375 C 107.074219 31.632812 104.835938 26.234375 100.777344 22.171875 C 96.714844 18.113281 91.316406 15.878906 85.578125 15.878906 C 79.835938 15.878906 74.4375 18.117188 70.375 22.171875 L 65.523438 27.023438 L 60.667969 22.171875 C 56.613281 18.113281 51.214844 15.878906 45.472656 15.878906 C 39.726562 15.878906 34.328125 18.113281 30.273438 22.171875 C 21.890625 30.554688 21.890625 44.191406 30.273438 52.574219 L 42.136719 64.4375 L 49.144531 57.425781 L 37.28125 45.5625 C 35.097656 43.378906 33.894531 40.46875 33.894531 37.371094 C 33.894531 34.277344 35.097656 31.367188 37.285156 29.183594 C 40.230469 26.238281 43.679688 25.796875 45.472656 25.796875 C 47.261719 25.796875 50.703125 26.238281 53.65625 29.183594 L 65.523438 41.050781 L 77.386719 29.183594 C 80.335938 26.238281 83.78125 25.796875 85.578125 25.796875 Z M 85.578125 25.796875 " fill-opacity="1" fill-rule="nonzero"/></g></svg>