<svg xmlns="http://www.w3.org/2000/svg" xmlns:xlink="http://www.w3.org/1999/xlink" width="500" zoomAndPan="magnify" viewBox="0 0 375 374.999991" height="500" preserveAspectRatio="xMidYMid meet" version="1.0"><defs><g/><clipPath id="7e20c93732"><path d="M 75 42.785156 L 144.40625 42.785156 L 144.40625 105.785156 L 75 105.785156 Z M 75 42.785156 " clip-rule="nonzero"/></clipPath></defs><g fill="#8d0ff0" fill-opacity="1"><g transform="translate(151.435626, 80.138886)"><g><path d="M 14.828125 0.421875 C 12.265625 0.421875 10.007812 -0.117188 8.0625 -1.203125 C 6.125 -2.296875 4.628906 -3.835938 3.578125 -5.828125 C 2.523438 -7.828125 2 -10.160156 2 -12.828125 C 2 -15.492188 2.550781 -17.851562 3.65625 -19.90625 C 4.757812 -21.957031 6.3125 -23.539062 8.3125 -24.65625 C 10.3125 -25.78125 12.609375 -26.34375 15.203125 -26.34375 C 16.566406 -26.34375 17.941406 -26.148438 19.328125 -25.765625 C 20.710938 -25.378906 21.929688 -24.851562 22.984375 -24.1875 C 24.109375 -23.457031 24.671875 -22.53125 24.671875 -21.40625 C 24.671875 -20.632812 24.484375 -20.007812 24.109375 -19.53125 C 23.742188 -19.0625 23.265625 -18.828125 22.671875 -18.828125 C 22.285156 -18.828125 21.878906 -18.914062 21.453125 -19.09375 C 21.035156 -19.269531 20.617188 -19.476562 20.203125 -19.71875 C 19.421875 -20.175781 18.679688 -20.535156 17.984375 -20.796875 C 17.285156 -21.054688 16.476562 -21.1875 15.5625 -21.1875 C 13.394531 -21.1875 11.722656 -20.476562 10.546875 -19.0625 C 9.367188 -17.644531 8.78125 -15.601562 8.78125 -12.9375 C 8.78125 -10.3125 9.367188 -8.285156 10.546875 -6.859375 C 11.722656 -5.441406 13.394531 -4.734375 15.5625 -4.734375 C 16.4375 -4.734375 17.21875 -4.863281 17.90625 -5.125 C 18.59375 -5.382812 19.359375 -5.742188 20.203125 -6.203125 C 20.722656 -6.515625 21.175781 -6.75 21.5625 -6.90625 C 21.945312 -7.070312 22.332031 -7.15625 22.71875 -7.15625 C 23.28125 -7.15625 23.753906 -6.910156 24.140625 -6.421875 C 24.523438 -5.929688 24.71875 -5.316406 24.71875 -4.578125 C 24.71875 -3.984375 24.585938 -3.460938 24.328125 -3.015625 C 24.066406 -2.578125 23.632812 -2.1875 23.03125 -1.84375 C 21.945312 -1.132812 20.6875 -0.578125 19.25 -0.171875 C 17.8125 0.222656 16.335938 0.421875 14.828125 0.421875 Z M 14.828125 0.421875 "/></g></g></g><g fill="#8d0ff0" fill-opacity="1"><g transform="translate(176.052931, 80.138886)"><g><path d="M 17.78125 -26.25 C 18.6875 -26.3125 19.398438 -26.113281 19.921875 -25.65625 C 20.453125 -25.207031 20.71875 -24.523438 20.71875 -23.609375 C 20.71875 -22.660156 20.488281 -21.957031 20.03125 -21.5 C 19.582031 -21.050781 18.757812 -20.753906 17.5625 -20.609375 L 15.984375 -20.453125 C 13.921875 -20.242188 12.40625 -19.539062 11.4375 -18.34375 C 10.476562 -17.15625 10 -15.671875 10 -13.890625 L 10 -2.84375 C 10 -1.820312 9.679688 -1.039062 9.046875 -0.5 C 8.410156 0.0390625 7.617188 0.3125 6.671875 0.3125 C 5.734375 0.3125 4.957031 0.0390625 4.34375 -0.5 C 3.726562 -1.039062 3.421875 -1.820312 3.421875 -2.84375 L 3.421875 -23.1875 C 3.421875 -24.175781 3.726562 -24.929688 4.34375 -25.453125 C 4.957031 -25.984375 5.71875 -26.25 6.625 -26.25 C 7.539062 -26.25 8.273438 -25.992188 8.828125 -25.484375 C 9.390625 -24.972656 9.671875 -24.242188 9.671875 -23.296875 L 9.671875 -21.1875 C 10.335938 -22.738281 11.328125 -23.929688 12.640625 -24.765625 C 13.960938 -25.609375 15.429688 -26.082031 17.046875 -26.1875 Z M 17.78125 -26.25 "/></g></g></g><g fill="#8d0ff0" fill-opacity="1"><g transform="translate(195.147123, 80.138886)"><g><path d="M 23.71875 -26.25 C 24.738281 -26.25 25.546875 -25.96875 26.140625 -25.40625 C 26.734375 -24.84375 27.03125 -24.085938 27.03125 -23.140625 L 27.03125 -2.734375 C 27.03125 -1.828125 26.722656 -1.09375 26.109375 -0.53125 C 25.492188 0.03125 24.695312 0.3125 23.71875 0.3125 C 22.769531 0.3125 22.015625 0.0507812 21.453125 -0.46875 C 20.890625 -1 20.609375 -1.71875 20.609375 -2.625 L 20.609375 -3.9375 C 19.804688 -2.539062 18.722656 -1.460938 17.359375 -0.703125 C 15.992188 0.046875 14.453125 0.421875 12.734375 0.421875 C 6.421875 0.421875 3.265625 -3.117188 3.265625 -10.203125 L 3.265625 -23.140625 C 3.265625 -24.085938 3.5625 -24.84375 4.15625 -25.40625 C 4.75 -25.96875 5.535156 -26.25 6.515625 -26.25 C 7.535156 -26.25 8.34375 -25.96875 8.9375 -25.40625 C 9.53125 -24.84375 9.828125 -24.085938 9.828125 -23.140625 L 9.828125 -10.15625 C 9.828125 -8.332031 10.195312 -6.976562 10.9375 -6.09375 C 11.675781 -5.21875 12.832031 -4.78125 14.40625 -4.78125 C 16.226562 -4.78125 17.691406 -5.382812 18.796875 -6.59375 C 19.898438 -7.8125 20.453125 -9.414062 20.453125 -11.40625 L 20.453125 -23.140625 C 20.453125 -24.085938 20.75 -24.84375 21.34375 -25.40625 C 21.945312 -25.96875 22.738281 -26.25 23.71875 -26.25 Z M 23.71875 -26.25 "/></g></g></g><g fill="#8d0ff0" fill-opacity="1"><g transform="translate(224.551108, 80.138886)"><g><path d="M 12.734375 0.421875 C 8.910156 0.421875 5.820312 -0.332031 3.46875 -1.84375 C 2.34375 -2.507812 1.78125 -3.457031 1.78125 -4.6875 C 1.78125 -5.382812 1.972656 -5.953125 2.359375 -6.390625 C 2.742188 -6.828125 3.21875 -7.046875 3.78125 -7.046875 C 4.382812 -7.046875 5.210938 -6.765625 6.265625 -6.203125 C 7.378906 -5.679688 8.398438 -5.28125 9.328125 -5 C 10.265625 -4.71875 11.453125 -4.578125 12.890625 -4.578125 C 14.359375 -4.578125 15.503906 -4.820312 16.328125 -5.3125 C 17.148438 -5.800781 17.5625 -6.484375 17.5625 -7.359375 C 17.5625 -7.953125 17.394531 -8.425781 17.0625 -8.78125 C 16.726562 -9.132812 16.128906 -9.457031 15.265625 -9.75 C 14.410156 -10.050781 13.109375 -10.394531 11.359375 -10.78125 C 8.234375 -11.414062 5.992188 -12.3125 4.640625 -13.46875 C 3.296875 -14.625 2.625 -16.21875 2.625 -18.25 C 2.625 -19.789062 3.078125 -21.179688 3.984375 -22.421875 C 4.898438 -23.671875 6.15625 -24.632812 7.75 -25.3125 C 9.351562 -26 11.171875 -26.34375 13.203125 -26.34375 C 14.671875 -26.34375 16.085938 -26.160156 17.453125 -25.796875 C 18.828125 -25.429688 20.054688 -24.894531 21.140625 -24.1875 C 22.265625 -23.488281 22.828125 -22.5625 22.828125 -21.40625 C 22.828125 -20.707031 22.632812 -20.117188 22.25 -19.640625 C 21.863281 -19.171875 21.390625 -18.9375 20.828125 -18.9375 C 20.441406 -18.9375 20.0625 -19.015625 19.6875 -19.171875 C 19.320312 -19.328125 18.859375 -19.5625 18.296875 -19.875 C 17.285156 -20.40625 16.410156 -20.800781 15.671875 -21.0625 C 14.929688 -21.320312 14.019531 -21.453125 12.9375 -21.453125 C 11.632812 -21.453125 10.609375 -21.1875 9.859375 -20.65625 C 9.109375 -20.132812 8.734375 -19.421875 8.734375 -18.515625 C 8.734375 -17.640625 9.117188 -16.972656 9.890625 -16.515625 C 10.660156 -16.054688 12.148438 -15.597656 14.359375 -15.140625 C 16.703125 -14.648438 18.539062 -14.085938 19.875 -13.453125 C 21.207031 -12.828125 22.160156 -12.039062 22.734375 -11.09375 C 23.316406 -10.144531 23.609375 -8.9375 23.609375 -7.46875 C 23.609375 -5.082031 22.617188 -3.171875 20.640625 -1.734375 C 18.660156 -0.296875 16.023438 0.421875 12.734375 0.421875 Z M 12.734375 0.421875 "/></g></g></g><g fill="#8d0ff0" fill-opacity="1"><g transform="translate(249.010596, 80.138886)"><g><path d="M 18.453125 -26.34375 C 24.484375 -26.34375 27.5 -22.820312 27.5 -15.78125 L 27.5 -2.84375 C 27.5 -1.863281 27.207031 -1.09375 26.625 -0.53125 C 26.050781 0.03125 25.257812 0.3125 24.25 0.3125 C 23.226562 0.3125 22.421875 0.03125 21.828125 -0.53125 C 21.234375 -1.09375 20.9375 -1.863281 20.9375 -2.84375 L 20.9375 -15.78125 C 20.9375 -17.632812 20.554688 -18.988281 19.796875 -19.84375 C 19.046875 -20.707031 17.863281 -21.140625 16.25 -21.140625 C 14.351562 -21.140625 12.835938 -20.539062 11.703125 -19.34375 C 10.566406 -18.15625 10 -16.5625 10 -14.5625 L 10 -2.84375 C 10 -1.863281 9.695312 -1.09375 9.09375 -0.53125 C 8.5 0.03125 7.691406 0.3125 6.671875 0.3125 C 5.660156 0.3125 4.863281 0.03125 4.28125 -0.53125 C 3.707031 -1.09375 3.421875 -1.863281 3.421875 -2.84375 L 3.421875 -34.296875 C 3.421875 -35.203125 3.726562 -35.9375 4.34375 -36.5 C 4.957031 -37.0625 5.753906 -37.34375 6.734375 -37.34375 C 7.710938 -37.34375 8.5 -37.078125 9.09375 -36.546875 C 9.695312 -36.023438 10 -35.304688 10 -34.390625 L 10 -22.140625 C 10.875 -23.503906 12.035156 -24.546875 13.484375 -25.265625 C 14.941406 -25.984375 16.597656 -26.34375 18.453125 -26.34375 Z M 18.453125 -26.34375 "/></g></g></g><g fill="#8d0ff0" fill-opacity="1"><g transform="translate(278.73019, 80.138886)"><g><path d="M 6.671875 0.3125 C 5.734375 0.3125 4.957031 0.0390625 4.34375 -0.5 C 3.726562 -1.039062 3.421875 -1.820312 3.421875 -2.84375 L 3.421875 -34.234375 C 3.421875 -35.253906 3.726562 -36.023438 4.34375 -36.546875 C 4.957031 -37.078125 5.734375 -37.34375 6.671875 -37.34375 C 7.617188 -37.34375 8.410156 -37.078125 9.046875 -36.546875 C 9.679688 -36.023438 10 -35.253906 10 -34.234375 L 10 -2.84375 C 10 -1.820312 9.679688 -1.039062 9.046875 -0.5 C 8.410156 0.0390625 7.617188 0.3125 6.671875 0.3125 Z M 6.671875 0.3125 "/></g></g></g><g fill="#8d0ff0" fill-opacity="1"><g transform="translate(291.03883, 80.138886)"><g><path d="M 21.359375 -24.34375 C 21.640625 -24.976562 22.015625 -25.441406 22.484375 -25.734375 C 22.953125 -26.035156 23.46875 -26.1875 24.03125 -26.1875 C 24.84375 -26.1875 25.570312 -25.914062 26.21875 -25.375 C 26.863281 -24.832031 27.1875 -24.160156 27.1875 -23.359375 C 27.1875 -22.960938 27.082031 -22.554688 26.875 -22.140625 L 12.515625 7.9375 C 11.921875 9.132812 10.992188 9.734375 9.734375 9.734375 C 8.921875 9.734375 8.207031 9.476562 7.59375 8.96875 C 6.976562 8.457031 6.671875 7.816406 6.671875 7.046875 C 6.671875 6.660156 6.78125 6.222656 7 5.734375 L 10.578125 -1.78125 L 0.78125 -22.140625 C 0.613281 -22.492188 0.53125 -22.898438 0.53125 -23.359375 C 0.53125 -24.160156 0.867188 -24.84375 1.546875 -25.40625 C 2.234375 -25.96875 3.015625 -26.25 3.890625 -26.25 C 4.484375 -26.25 5.023438 -26.097656 5.515625 -25.796875 C 6.015625 -25.492188 6.398438 -25.03125 6.671875 -24.40625 L 14.046875 -8.15625 Z M 21.359375 -24.34375 "/></g></g></g><g fill="#000000" fill-opacity="1"><g transform="translate(163.036158, 92.135187)"><g><path d="M 4.03125 0.09375 C 3.332031 0.09375 2.71875 -0.0546875 2.1875 -0.359375 C 1.664062 -0.660156 1.265625 -1.09375 0.984375 -1.65625 C 0.703125 -2.21875 0.5625 -2.878906 0.5625 -3.640625 C 0.5625 -4.398438 0.703125 -5.054688 0.984375 -5.609375 C 1.265625 -6.171875 1.664062 -6.601562 2.1875 -6.90625 C 2.71875 -7.207031 3.332031 -7.359375 4.03125 -7.359375 C 4.488281 -7.359375 4.914062 -7.289062 5.3125 -7.15625 C 5.707031 -7.03125 6.0625 -6.835938 6.375 -6.578125 C 6.457031 -6.503906 6.515625 -6.429688 6.546875 -6.359375 C 6.585938 -6.285156 6.609375 -6.191406 6.609375 -6.078125 C 6.609375 -5.929688 6.566406 -5.804688 6.484375 -5.703125 C 6.398438 -5.597656 6.300781 -5.546875 6.1875 -5.546875 C 6.050781 -5.546875 5.910156 -5.59375 5.765625 -5.6875 C 5.472656 -5.90625 5.195312 -6.054688 4.9375 -6.140625 C 4.6875 -6.234375 4.40625 -6.28125 4.09375 -6.28125 C 3.375 -6.28125 2.832031 -6.054688 2.46875 -5.609375 C 2.101562 -5.160156 1.921875 -4.503906 1.921875 -3.640625 C 1.921875 -2.765625 2.101562 -2.101562 2.46875 -1.65625 C 2.832031 -1.207031 3.375 -0.984375 4.09375 -0.984375 C 4.382812 -0.984375 4.65625 -1.03125 4.90625 -1.125 C 5.164062 -1.21875 5.453125 -1.367188 5.765625 -1.578125 C 5.835938 -1.617188 5.90625 -1.648438 5.96875 -1.671875 C 6.039062 -1.703125 6.113281 -1.71875 6.1875 -1.71875 C 6.300781 -1.71875 6.398438 -1.664062 6.484375 -1.5625 C 6.566406 -1.457031 6.609375 -1.332031 6.609375 -1.1875 C 6.609375 -1.082031 6.585938 -0.988281 6.546875 -0.90625 C 6.515625 -0.832031 6.457031 -0.757812 6.375 -0.6875 C 6.0625 -0.4375 5.707031 -0.242188 5.3125 -0.109375 C 4.914062 0.0234375 4.488281 0.09375 4.03125 0.09375 Z M 4.03125 0.09375 "/></g></g></g><g fill="#000000" fill-opacity="1"><g transform="translate(171.271658, 92.135187)"><g><path d="M 4.015625 0.09375 C 3.304688 0.09375 2.691406 -0.0546875 2.171875 -0.359375 C 1.660156 -0.660156 1.265625 -1.09375 0.984375 -1.65625 C 0.703125 -2.21875 0.5625 -2.878906 0.5625 -3.640625 C 0.5625 -4.398438 0.695312 -5.054688 0.96875 -5.609375 C 1.25 -6.171875 1.648438 -6.601562 2.171875 -6.90625 C 2.691406 -7.207031 3.304688 -7.359375 4.015625 -7.359375 C 4.722656 -7.359375 5.335938 -7.207031 5.859375 -6.90625 C 6.378906 -6.601562 6.78125 -6.171875 7.0625 -5.609375 C 7.34375 -5.054688 7.484375 -4.398438 7.484375 -3.640625 C 7.484375 -2.878906 7.335938 -2.21875 7.046875 -1.65625 C 6.765625 -1.09375 6.363281 -0.660156 5.84375 -0.359375 C 5.332031 -0.0546875 4.722656 0.09375 4.015625 0.09375 Z M 4.015625 -0.96875 C 4.679688 -0.96875 5.203125 -1.195312 5.578125 -1.65625 C 5.953125 -2.113281 6.140625 -2.773438 6.140625 -3.640625 C 6.140625 -4.492188 5.953125 -5.148438 5.578125 -5.609375 C 5.203125 -6.066406 4.679688 -6.296875 4.015625 -6.296875 C 3.347656 -6.296875 2.828125 -6.066406 2.453125 -5.609375 C 2.078125 -5.148438 1.890625 -4.492188 1.890625 -3.640625 C 1.890625 -2.773438 2.078125 -2.113281 2.453125 -1.65625 C 2.828125 -1.195312 3.347656 -0.96875 4.015625 -0.96875 Z M 4.015625 -0.96875 "/></g></g></g><g fill="#000000" fill-opacity="1"><g transform="translate(180.549494, 92.135187)"><g><path d="M 6.296875 -7.328125 C 6.484375 -7.328125 6.632812 -7.265625 6.75 -7.140625 C 6.863281 -7.023438 6.921875 -6.863281 6.921875 -6.65625 L 6.921875 -0.609375 C 6.921875 -0.410156 6.859375 -0.25 6.734375 -0.125 C 6.617188 0 6.472656 0.0625 6.296875 0.0625 C 6.066406 0.0625 5.894531 -0.015625 5.78125 -0.171875 L 2.015625 -5.078125 L 2.015625 -0.609375 C 2.015625 -0.410156 1.957031 -0.25 1.84375 -0.125 C 1.738281 0 1.59375 0.0625 1.40625 0.0625 C 1.207031 0.0625 1.050781 0 0.9375 -0.125 C 0.832031 -0.25 0.78125 -0.410156 0.78125 -0.609375 L 0.78125 -6.65625 C 0.78125 -6.863281 0.835938 -7.023438 0.953125 -7.140625 C 1.078125 -7.265625 1.234375 -7.328125 1.421875 -7.328125 C 1.640625 -7.328125 1.804688 -7.242188 1.921875 -7.078125 L 5.671875 -2.203125 L 5.671875 -6.65625 C 5.671875 -6.863281 5.726562 -7.023438 5.84375 -7.140625 C 5.957031 -7.265625 6.109375 -7.328125 6.296875 -7.328125 Z M 6.296875 -7.328125 "/></g></g></g><g fill="#000000" fill-opacity="1"><g transform="translate(189.497084, 92.135187)"><g><path d="M 6.296875 -7.328125 C 6.484375 -7.328125 6.632812 -7.265625 6.75 -7.140625 C 6.863281 -7.023438 6.921875 -6.863281 6.921875 -6.65625 L 6.921875 -0.609375 C 6.921875 -0.410156 6.859375 -0.25 6.734375 -0.125 C 6.617188 0 6.472656 0.0625 6.296875 0.0625 C 6.066406 0.0625 5.894531 -0.015625 5.78125 -0.171875 L 2.015625 -5.078125 L 2.015625 -0.609375 C 2.015625 -0.410156 1.957031 -0.25 1.84375 -0.125 C 1.738281 0 1.59375 0.0625 1.40625 0.0625 C 1.207031 0.0625 1.050781 0 0.9375 -0.125 C 0.832031 -0.25 0.78125 -0.410156 0.78125 -0.609375 L 0.78125 -6.65625 C 0.78125 -6.863281 0.835938 -7.023438 0.953125 -7.140625 C 1.078125 -7.265625 1.234375 -7.328125 1.421875 -7.328125 C 1.640625 -7.328125 1.804688 -7.242188 1.921875 -7.078125 L 5.671875 -2.203125 L 5.671875 -6.65625 C 5.671875 -6.863281 5.726562 -7.023438 5.84375 -7.140625 C 5.957031 -7.265625 6.109375 -7.328125 6.296875 -7.328125 Z M 6.296875 -7.328125 "/></g></g></g><g fill="#000000" fill-opacity="1"><g transform="translate(198.444674, 92.135187)"><g><path d="M 1.421875 0 C 1.222656 0 1.066406 -0.0507812 0.953125 -0.15625 C 0.835938 -0.269531 0.78125 -0.425781 0.78125 -0.625 L 0.78125 -6.640625 C 0.78125 -6.835938 0.835938 -6.988281 0.953125 -7.09375 C 1.066406 -7.207031 1.222656 -7.265625 1.421875 -7.265625 L 5.140625 -7.265625 C 5.335938 -7.265625 5.492188 -7.21875 5.609375 -7.125 C 5.722656 -7.039062 5.78125 -6.914062 5.78125 -6.75 C 5.78125 -6.582031 5.722656 -6.453125 5.609375 -6.359375 C 5.492188 -6.265625 5.335938 -6.21875 5.140625 -6.21875 L 2.078125 -6.21875 L 2.078125 -4.21875 L 4.9375 -4.21875 C 5.132812 -4.21875 5.285156 -4.171875 5.390625 -4.078125 C 5.503906 -3.992188 5.5625 -3.863281 5.5625 -3.6875 C 5.5625 -3.519531 5.503906 -3.390625 5.390625 -3.296875 C 5.285156 -3.210938 5.132812 -3.171875 4.9375 -3.171875 L 2.078125 -3.171875 L 2.078125 -1.046875 L 5.140625 -1.046875 C 5.335938 -1.046875 5.492188 -1 5.609375 -0.90625 C 5.722656 -0.820312 5.78125 -0.691406 5.78125 -0.515625 C 5.78125 -0.347656 5.722656 -0.21875 5.609375 -0.125 C 5.492188 -0.0390625 5.335938 0 5.140625 0 Z M 1.421875 0 "/></g></g></g><g fill="#000000" fill-opacity="1"><g transform="translate(205.761679, 92.135187)"><g><path d="M 4.03125 0.09375 C 3.332031 0.09375 2.71875 -0.0546875 2.1875 -0.359375 C 1.664062 -0.660156 1.265625 -1.09375 0.984375 -1.65625 C 0.703125 -2.21875 0.5625 -2.878906 0.5625 -3.640625 C 0.5625 -4.398438 0.703125 -5.054688 0.984375 -5.609375 C 1.265625 -6.171875 1.664062 -6.601562 2.1875 -6.90625 C 2.71875 -7.207031 3.332031 -7.359375 4.03125 -7.359375 C 4.488281 -7.359375 4.914062 -7.289062 5.3125 -7.15625 C 5.707031 -7.03125 6.0625 -6.835938 6.375 -6.578125 C 6.457031 -6.503906 6.515625 -6.429688 6.546875 -6.359375 C 6.585938 -6.285156 6.609375 -6.191406 6.609375 -6.078125 C 6.609375 -5.929688 6.566406 -5.804688 6.484375 -5.703125 C 6.398438 -5.597656 6.300781 -5.546875 6.1875 -5.546875 C 6.050781 -5.546875 5.910156 -5.59375 5.765625 -5.6875 C 5.472656 -5.90625 5.195312 -6.054688 4.9375 -6.140625 C 4.6875 -6.234375 4.40625 -6.28125 4.09375 -6.28125 C 3.375 -6.28125 2.832031 -6.054688 2.46875 -5.609375 C 2.101562 -5.160156 1.921875 -4.503906 1.921875 -3.640625 C 1.921875 -2.765625 2.101562 -2.101562 2.46875 -1.65625 C 2.832031 -1.207031 3.375 -0.984375 4.09375 -0.984375 C 4.382812 -0.984375 4.65625 -1.03125 4.90625 -1.125 C 5.164062 -1.21875 5.453125 -1.367188 5.765625 -1.578125 C 5.835938 -1.617188 5.90625 -1.648438 5.96875 -1.671875 C 6.039062 -1.703125 6.113281 -1.71875 6.1875 -1.71875 C 6.300781 -1.71875 6.398438 -1.664062 6.484375 -1.5625 C 6.566406 -1.457031 6.609375 -1.332031 6.609375 -1.1875 C 6.609375 -1.082031 6.585938 -0.988281 6.546875 -0.90625 C 6.515625 -0.832031 6.457031 -0.757812 6.375 -0.6875 C 6.0625 -0.4375 5.707031 -0.242188 5.3125 -0.109375 C 4.914062 0.0234375 4.488281 0.09375 4.03125 0.09375 Z M 4.03125 0.09375 "/></g></g></g><g fill="#000000" fill-opacity="1"><g transform="translate(213.997181, 92.135187)"><g><path d="M 3.171875 0.046875 C 2.960938 0.046875 2.796875 -0.0078125 2.671875 -0.125 C 2.554688 -0.25 2.5 -0.410156 2.5 -0.609375 L 2.5 -6.171875 L 0.625 -6.171875 C 0.207031 -6.171875 0 -6.351562 0 -6.71875 C 0 -7.082031 0.207031 -7.265625 0.625 -7.265625 L 5.703125 -7.265625 C 6.117188 -7.265625 6.328125 -7.082031 6.328125 -6.71875 C 6.328125 -6.351562 6.117188 -6.171875 5.703125 -6.171875 L 3.828125 -6.171875 L 3.828125 -0.609375 C 3.828125 -0.410156 3.765625 -0.25 3.640625 -0.125 C 3.523438 -0.0078125 3.367188 0.046875 3.171875 0.046875 Z M 3.171875 0.046875 "/></g></g></g><g fill="#000000" fill-opacity="1"><g transform="translate(221.561864, 92.135187)"><g/></g></g><g fill="#000000" fill-opacity="1"><g transform="translate(225.597053, 92.135187)"><g><path d="M 9.90625 -6.921875 C 9.945312 -7.054688 10.019531 -7.15625 10.125 -7.21875 C 10.238281 -7.289062 10.359375 -7.328125 10.484375 -7.328125 C 10.648438 -7.328125 10.789062 -7.273438 10.90625 -7.171875 C 11.03125 -7.066406 11.09375 -6.929688 11.09375 -6.765625 C 11.09375 -6.703125 11.078125 -6.613281 11.046875 -6.5 L 8.828125 -0.359375 C 8.773438 -0.222656 8.679688 -0.113281 8.546875 -0.03125 C 8.421875 0.0390625 8.285156 0.078125 8.140625 0.078125 C 7.984375 0.078125 7.835938 0.0390625 7.703125 -0.03125 C 7.578125 -0.113281 7.492188 -0.222656 7.453125 -0.359375 L 5.734375 -5.21875 L 3.984375 -0.359375 C 3.929688 -0.222656 3.84375 -0.113281 3.71875 -0.03125 C 3.59375 0.0390625 3.453125 0.078125 3.296875 0.078125 C 3.148438 0.078125 3.007812 0.0390625 2.875 -0.03125 C 2.75 -0.113281 2.664062 -0.222656 2.625 -0.359375 L 0.40625 -6.5 C 0.363281 -6.601562 0.34375 -6.691406 0.34375 -6.765625 C 0.34375 -6.929688 0.40625 -7.066406 0.53125 -7.171875 C 0.664062 -7.273438 0.816406 -7.328125 0.984375 -7.328125 C 1.128906 -7.328125 1.253906 -7.289062 1.359375 -7.21875 C 1.472656 -7.15625 1.550781 -7.054688 1.59375 -6.921875 L 3.359375 -1.875 L 5.15625 -6.890625 C 5.207031 -7.023438 5.285156 -7.128906 5.390625 -7.203125 C 5.503906 -7.285156 5.625 -7.328125 5.75 -7.328125 C 5.882812 -7.328125 6.007812 -7.285156 6.125 -7.203125 C 6.238281 -7.128906 6.316406 -7.019531 6.359375 -6.875 L 8.109375 -1.8125 Z M 9.90625 -6.921875 "/></g></g></g><g fill="#000000" fill-opacity="1"><g transform="translate(238.290872, 92.135187)"><g><path d="M 1.4375 0.0625 C 1.238281 0.0625 1.078125 0 0.953125 -0.125 C 0.835938 -0.25 0.78125 -0.410156 0.78125 -0.609375 L 0.78125 -6.65625 C 0.78125 -6.863281 0.835938 -7.023438 0.953125 -7.140625 C 1.078125 -7.265625 1.238281 -7.328125 1.4375 -7.328125 C 1.644531 -7.328125 1.804688 -7.265625 1.921875 -7.140625 C 2.046875 -7.023438 2.109375 -6.863281 2.109375 -6.65625 L 2.109375 -0.609375 C 2.109375 -0.410156 2.046875 -0.25 1.921875 -0.125 C 1.804688 0 1.644531 0.0625 1.4375 0.0625 Z M 1.4375 0.0625 "/></g></g></g><g fill="#000000" fill-opacity="1"><g transform="translate(242.429259, 92.135187)"><g><path d="M 3.171875 0.046875 C 2.960938 0.046875 2.796875 -0.0078125 2.671875 -0.125 C 2.554688 -0.25 2.5 -0.410156 2.5 -0.609375 L 2.5 -6.171875 L 0.625 -6.171875 C 0.207031 -6.171875 0 -6.351562 0 -6.71875 C 0 -7.082031 0.207031 -7.265625 0.625 -7.265625 L 5.703125 -7.265625 C 6.117188 -7.265625 6.328125 -7.082031 6.328125 -6.71875 C 6.328125 -6.351562 6.117188 -6.171875 5.703125 -6.171875 L 3.828125 -6.171875 L 3.828125 -0.609375 C 3.828125 -0.410156 3.765625 -0.25 3.640625 -0.125 C 3.523438 -0.0078125 3.367188 0.046875 3.171875 0.046875 Z M 3.171875 0.046875 "/></g></g></g><g fill="#000000" fill-opacity="1"><g transform="translate(249.993941, 92.135187)"><g><path d="M 6.46875 -7.328125 C 6.664062 -7.328125 6.820312 -7.265625 6.9375 -7.140625 C 7.050781 -7.023438 7.109375 -6.863281 7.109375 -6.65625 L 7.109375 -0.609375 C 7.109375 -0.410156 7.046875 -0.25 6.921875 -0.125 C 6.804688 0 6.65625 0.0625 6.46875 0.0625 C 6.269531 0.0625 6.109375 0 5.984375 -0.125 C 5.867188 -0.25 5.8125 -0.410156 5.8125 -0.609375 L 5.8125 -3.15625 L 2.09375 -3.15625 L 2.09375 -0.609375 C 2.09375 -0.410156 2.03125 -0.25 1.90625 -0.125 C 1.789062 0 1.632812 0.0625 1.4375 0.0625 C 1.238281 0.0625 1.078125 0 0.953125 -0.125 C 0.835938 -0.25 0.78125 -0.410156 0.78125 -0.609375 L 0.78125 -6.65625 C 0.78125 -6.863281 0.835938 -7.023438 0.953125 -7.140625 C 1.078125 -7.265625 1.238281 -7.328125 1.4375 -7.328125 C 1.632812 -7.328125 1.789062 -7.265625 1.90625 -7.140625 C 2.03125 -7.023438 2.09375 -6.863281 2.09375 -6.65625 L 2.09375 -4.234375 L 5.8125 -4.234375 L 5.8125 -6.65625 C 5.8125 -6.863281 5.867188 -7.023438 5.984375 -7.140625 C 6.109375 -7.265625 6.269531 -7.328125 6.46875 -7.328125 Z M 6.46875 -7.328125 "/></g></g></g><g fill="#000000" fill-opacity="1"><g transform="translate(259.137612, 92.135187)"><g/></g></g><g fill="#000000" fill-opacity="1"><g transform="translate(263.172802, 92.135187)"><g><path d="M 1.40625 0 C 1.207031 0 1.050781 -0.0507812 0.9375 -0.15625 C 0.832031 -0.269531 0.78125 -0.425781 0.78125 -0.625 L 0.78125 -6.65625 C 0.78125 -6.863281 0.835938 -7.023438 0.953125 -7.140625 C 1.078125 -7.265625 1.238281 -7.328125 1.4375 -7.328125 C 1.644531 -7.328125 1.804688 -7.265625 1.921875 -7.140625 C 2.046875 -7.023438 2.109375 -6.863281 2.109375 -6.65625 L 2.109375 -1.09375 L 5.015625 -1.09375 C 5.421875 -1.09375 5.625 -0.910156 5.625 -0.546875 C 5.625 -0.179688 5.421875 0 5.015625 0 Z M 1.40625 0 "/></g></g></g><g fill="#000000" fill-opacity="1"><g transform="translate(270.138919, 92.135187)"><g><path d="M 4.015625 0.09375 C 3.304688 0.09375 2.691406 -0.0546875 2.171875 -0.359375 C 1.660156 -0.660156 1.265625 -1.09375 0.984375 -1.65625 C 0.703125 -2.21875 0.5625 -2.878906 0.5625 -3.640625 C 0.5625 -4.398438 0.695312 -5.054688 0.96875 -5.609375 C 1.25 -6.171875 1.648438 -6.601562 2.171875 -6.90625 C 2.691406 -7.207031 3.304688 -7.359375 4.015625 -7.359375 C 4.722656 -7.359375 5.335938 -7.207031 5.859375 -6.90625 C 6.378906 -6.601562 6.78125 -6.171875 7.0625 -5.609375 C 7.34375 -5.054688 7.484375 -4.398438 7.484375 -3.640625 C 7.484375 -2.878906 7.335938 -2.21875 7.046875 -1.65625 C 6.765625 -1.09375 6.363281 -0.660156 5.84375 -0.359375 C 5.332031 -0.0546875 4.722656 0.09375 4.015625 0.09375 Z M 4.015625 -0.96875 C 4.679688 -0.96875 5.203125 -1.195312 5.578125 -1.65625 C 5.953125 -2.113281 6.140625 -2.773438 6.140625 -3.640625 C 6.140625 -4.492188 5.953125 -5.148438 5.578125 -5.609375 C 5.203125 -6.066406 4.679688 -6.296875 4.015625 -6.296875 C 3.347656 -6.296875 2.828125 -6.066406 2.453125 -5.609375 C 2.078125 -5.148438 1.890625 -4.492188 1.890625 -3.640625 C 1.890625 -2.773438 2.078125 -2.113281 2.453125 -1.65625 C 2.828125 -1.195312 3.347656 -0.96875 4.015625 -0.96875 Z M 4.015625 -0.96875 "/></g></g></g><g fill="#000000" fill-opacity="1"><g transform="translate(279.41675, 92.135187)"><g><path d="M 6.078125 -6.984375 C 6.179688 -7.210938 6.363281 -7.328125 6.625 -7.328125 C 6.789062 -7.328125 6.941406 -7.269531 7.078125 -7.15625 C 7.222656 -7.050781 7.296875 -6.914062 7.296875 -6.75 C 7.296875 -6.675781 7.273438 -6.59375 7.234375 -6.5 L 4.375 -0.34375 C 4.3125 -0.21875 4.210938 -0.117188 4.078125 -0.046875 C 3.953125 0.0234375 3.820312 0.0625 3.6875 0.0625 C 3.539062 0.0625 3.398438 0.0234375 3.265625 -0.046875 C 3.140625 -0.117188 3.046875 -0.21875 2.984375 -0.34375 L 0.140625 -6.5 C 0.0976562 -6.59375 0.078125 -6.675781 0.078125 -6.75 C 0.078125 -6.914062 0.144531 -7.050781 0.28125 -7.15625 C 0.425781 -7.269531 0.59375 -7.328125 0.78125 -7.328125 C 0.894531 -7.328125 1 -7.296875 1.09375 -7.234375 C 1.195312 -7.179688 1.273438 -7.097656 1.328125 -6.984375 L 3.703125 -1.71875 Z M 6.078125 -6.984375 "/></g></g></g><g fill="#000000" fill-opacity="1"><g transform="translate(288.023768, 92.135187)"><g><path d="M 1.421875 0 C 1.222656 0 1.066406 -0.0507812 0.953125 -0.15625 C 0.835938 -0.269531 0.78125 -0.425781 0.78125 -0.625 L 0.78125 -6.640625 C 0.78125 -6.835938 0.835938 -6.988281 0.953125 -7.09375 C 1.066406 -7.207031 1.222656 -7.265625 1.421875 -7.265625 L 5.140625 -7.265625 C 5.335938 -7.265625 5.492188 -7.21875 5.609375 -7.125 C 5.722656 -7.039062 5.78125 -6.914062 5.78125 -6.75 C 5.78125 -6.582031 5.722656 -6.453125 5.609375 -6.359375 C 5.492188 -6.265625 5.335938 -6.21875 5.140625 -6.21875 L 2.078125 -6.21875 L 2.078125 -4.21875 L 4.9375 -4.21875 C 5.132812 -4.21875 5.285156 -4.171875 5.390625 -4.078125 C 5.503906 -3.992188 5.5625 -3.863281 5.5625 -3.6875 C 5.5625 -3.519531 5.503906 -3.390625 5.390625 -3.296875 C 5.285156 -3.210938 5.132812 -3.171875 4.9375 -3.171875 L 2.078125 -3.171875 L 2.078125 -1.046875 L 5.140625 -1.046875 C 5.335938 -1.046875 5.492188 -1 5.609375 -0.90625 C 5.722656 -0.820312 5.78125 -0.691406 5.78125 -0.515625 C 5.78125 -0.347656 5.722656 -0.21875 5.609375 -0.125 C 5.492188 -0.0390625 5.335938 0 5.140625 0 Z M 1.421875 0 "/></g></g></g><g clip-path="url(#7e20c93732)"><path fill="#8d0ff0" d="M 97.566406 93.871094 L 126.117188 65.316406 C 126.726562 64.707031 127.0625 63.894531 127.0625 63.03125 C 127.0625 62.167969 126.726562 61.355469 126.117188 60.746094 C 125.507812 60.136719 124.695312 59.800781 123.832031 59.800781 C 122.964844 59.800781 122.152344 60.136719 121.542969 60.746094 L 109.59375 72.695312 L 97.644531 60.746094 C 97.035156 60.136719 96.226562 59.800781 95.363281 59.800781 C 94.496094 59.800781 93.683594 60.136719 93.078125 60.746094 C 92.253906 61.566406 92.132812 62.53125 92.132812 63.03125 C 92.132812 63.53125 92.253906 64.496094 93.078125 65.316406 L 105.023438 77.265625 L 92.996094 89.296875 L 81.046875 77.347656 C 73.152344 69.453125 73.152344 56.609375 81.046875 48.714844 C 84.867188 44.890625 89.953125 42.789062 95.363281 42.789062 C 100.238281 42.789062 104.941406 44.535156 108.601562 47.714844 L 109.59375 48.574219 L 110.589844 47.714844 C 114.253906 44.535156 118.957031 42.789062 123.832031 42.789062 C 129.238281 42.789062 134.324219 44.890625 138.148438 48.714844 C 141.964844 52.53125 144.066406 57.617188 144.066406 63.03125 C 144.066406 68.445312 141.964844 73.53125 138.148438 77.347656 L 109.597656 105.902344 Z M 123.832031 54.816406 C 125.101562 54.816406 127.546875 55.128906 129.644531 57.21875 C 131.738281 59.316406 132.050781 61.761719 132.050781 63.03125 C 132.050781 64.300781 131.738281 66.746094 129.644531 68.84375 L 111.359375 87.128906 L 104.621094 93.871094 L 109.597656 98.847656 L 134.621094 73.820312 C 137.503906 70.941406 139.089844 67.109375 139.089844 63.03125 C 139.089844 58.957031 137.503906 55.125 134.621094 52.242188 C 131.738281 49.359375 127.90625 47.773438 123.832031 47.773438 C 119.753906 47.773438 115.921875 49.363281 113.039062 52.242188 L 109.59375 55.6875 L 106.148438 52.242188 C 103.269531 49.359375 99.4375 47.773438 95.363281 47.773438 C 91.285156 47.773438 87.453125 49.359375 84.574219 52.242188 C 78.621094 58.191406 78.621094 67.871094 84.574219 73.820312 L 92.996094 82.242188 L 97.96875 77.265625 L 89.550781 68.84375 C 88 67.292969 87.144531 65.230469 87.144531 63.03125 C 87.144531 60.832031 88 58.769531 89.550781 57.21875 C 91.640625 55.125 94.089844 54.816406 95.363281 54.816406 C 96.632812 54.816406 99.078125 55.125 101.171875 57.21875 L 109.59375 65.640625 L 118.019531 57.21875 C 120.109375 55.128906 122.558594 54.816406 123.832031 54.816406 Z M 123.832031 54.816406 " fill-opacity="1" fill-rule="nonzero"/></g></svg>