<svg width="22" height="22" viewBox="0 0 22 22" fill="none" xmlns="http://www.w3.org/2000/svg">
<path d="M6.66693 12.0481L6.66694 12.0481C8.26631 12.5047 9.49467 13.733 9.95192 15.3331L10.4713 17.1511C10.5387 17.3872 10.7543 17.55 11 17.55C11.2457 17.55 11.4613 17.3872 11.5287 17.1511L11.4807 17.1373L11.5287 17.1511L12.0481 15.3331C12.5053 13.733 13.733 12.5053 15.3331 12.0481L17.1511 11.5287C17.3872 11.4613 17.55 11.2457 17.55 11C17.55 10.7543 17.3872 10.5387 17.1511 10.4713L17.1373 10.5193L17.1511 10.4713L15.3331 9.95192L15.3331 9.95192C13.7337 9.49533 12.5053 8.26699 12.0481 6.66693C12.0481 6.66693 12.0481 6.66693 12.0481 6.66693L11.5287 4.84894L11.4807 4.86267L11.5287 4.84893C11.4613 4.61282 11.2457 4.45 11 4.45C10.7543 4.45 10.5387 4.61282 10.4713 4.84893L10.5193 4.86267L10.4713 4.84894L9.95192 6.66693C9.95192 6.66693 9.95192 6.66693 9.95192 6.66693C9.49467 8.26698 8.26698 9.49467 6.66693 9.95192C6.66693 9.95192 6.66693 9.95192 6.66693 9.95192L4.84894 10.4713L4.86267 10.5193L4.84893 10.4713C4.61282 10.5387 4.45 10.7543 4.45 11C4.45 11.2457 4.61282 11.4613 4.84893 11.5287L4.86267 11.4807L4.84894 11.5287L6.66693 12.0481ZM14.9991 11.0002C13.0582 11.5672 11.5675 13.0581 11.0007 14.999C10.4339 13.0581 8.9426 11.5666 7.00243 11.0002C8.94265 10.4331 10.4329 8.94275 10.9998 7.00242C11.567 8.94313 13.0587 10.4343 14.9991 11.0002Z" fill="#25314C" stroke="#25314C" stroke-width="0.1"/>
<rect x="0.75" y="0.75" width="20.5" height="20.5" rx="10.25" stroke="#25314C" stroke-width="1.5"/>
</svg>
