<svg width="24" height="25" viewBox="0 0 24 25" fill="none" xmlns="http://www.w3.org/2000/svg">
<path fill-rule="evenodd" clip-rule="evenodd" d="M8.30041 5.43332C7.70151 4.46951 6.26644 4.51864 5.7348 5.51686C5.35193 6.23571 5.64018 7.13337 6.39101 7.49667L7.41712 7.99314C7.46788 8.0177 7.52358 8.03142 7.57988 8.02794C8.06985 7.99768 8.57746 7.97328 9.10448 7.95453C9.43564 7.94275 9.63268 7.57739 9.45779 7.29594L8.30041 5.43332ZM14.5424 7.29594C14.3675 7.57739 14.5646 7.94275 14.8957 7.95453C15.4227 7.97328 15.9304 7.99768 16.4203 8.02794C16.4766 8.03142 16.5323 8.0177 16.5831 7.99314L17.6092 7.49667C18.3601 7.13337 18.6482 6.23571 18.2654 5.51686C17.7338 4.51864 16.2987 4.46951 15.6998 5.43332L14.5424 7.29594ZM19.9599 9.56226C19.7922 9.37005 19.7967 9.07431 19.9678 8.88505C21.0668 7.66952 21.3564 5.85014 20.535 4.30805C19.0706 1.55836 15.1589 1.43152 13.5156 4.07614L12.3641 5.92927C12.1965 6.19913 11.8037 6.19913 11.6361 5.92927L10.4846 4.07614C8.84128 1.43152 4.92963 1.55836 3.46515 4.30805C2.64381 5.85014 2.93341 7.66952 4.03236 8.88507C4.20349 9.07433 4.20807 9.37007 4.04029 9.56226C3.42606 10.2659 3.02924 11.1675 2.94843 12.1625C2.93247 12.359 2.91778 12.5562 2.90442 12.7541C2.88784 12.9997 3.08364 13.2068 3.32987 13.2068H10.5001C10.7368 13.2068 10.9287 13.0149 10.9287 12.7782V10.575C10.9287 9.98323 11.4084 9.50353 12.0001 9.50353C12.5919 9.50353 13.0716 9.98323 13.0716 10.575V12.7782C13.0716 13.0149 13.2635 13.2068 13.5002 13.2068H20.6703C20.9166 13.2068 21.1124 12.9997 21.0958 12.7541C21.0824 12.5562 21.0677 12.359 21.0517 12.1625C20.971 11.1675 20.5741 10.2658 19.9599 9.56226ZM10.9287 15.7782C10.9287 15.5415 10.7368 15.3497 10.5001 15.3497H2.88673C2.84578 15.3497 2.81255 15.3829 2.8125 15.4238C2.8125 16.5334 2.86187 17.6194 2.94845 18.6854C3.12691 20.8826 4.84643 22.6245 7.04519 22.784C8.10494 22.8608 9.24843 22.9084 10.4952 22.929C10.7337 22.9329 10.9287 22.7401 10.9287 22.5014V15.7782ZM13.5051 22.929C13.2665 22.9329 13.0716 22.7401 13.0716 22.5014V15.7782C13.0716 15.5415 13.2635 15.3497 13.5002 15.3497H21.1134C21.1544 15.3497 21.1877 15.3829 21.1877 15.4238C21.1877 16.5334 21.1383 17.6194 21.0517 18.6854C20.8733 20.8826 19.1538 22.6245 16.955 22.784C15.8953 22.8608 14.7518 22.9084 13.5051 22.929Z" fill="#9610FF"/>
</svg>
